# xmcd
#
# Track frame offsets:
#	150
#	17545
#	37768
#	57081
#	75405
#	95549
#	116551
#	134891
#	154157
#	171966
#	233630
#	252444
#	271969
#	290122
#
# Disc length: 4080 seconds
#
# Revision: 2
# Processed by: cddbd v1.5.2PL0 Copyright (c) Steve Scherf et al.
# Submitted via: EZCDAudioConverter 8.0.2.1
#
DISCID=bb0fee0e
DTITLE=Various Artist - Top Hits 28. Đã Không Yêu Thì Thôi
DYEAR=2006
DGENRE=Retrospective Pop
TTITLE0=Hồ Lệ Thu - Maria Magdelena
TTITLE1=Hollie Thanh Ngọ, Angela Trâm Anh - My Way
TTITLE2=Minh Tuyết - Đã Không Yêu Thì Thôi
TTITLE3=Lưu Bích - Hot Stuff
TTITLE4=Dương Triệu Vũ - Bài tình ca mùa đông
TTITLE5=Bằng Kiều - Những ngày đẹp trời
TTITLE6=Nguyễn Hưng - Lãng tử tình yêu
TTITLE7=Bảo Hân, Thủy Tiên - LK Bahama Mama and Sunny
TTITLE8=Trần Thái Hòa - If You Go Away
TTITLE9=Tốp Ca - LK Âm nhạc không biên giới
TTITLE10=Tuấn Ngọc, Khánh Hà - Et Maintenant
TTITLE11=Khánh Ly - Adieu Mon Pays
TTITLE12=Ninh Cát Loan Châu - Hoa hồng tình yêu
TTITLE13=Hợp Ca Thúy Nga Paris - Sunny
EXTD=
EXTT0=
EXTT1=
EXTT2=
EXTT3=
EXTT4=
EXTT5=
EXTT6=
EXTT7=
EXTT8=
EXTT9=
EXTT10=
EXTT11=
EXTT12=
EXTT13=
PLAYORDER=
